<?xml version="1.0" standalone="no"?><!DOCTYPE svg PUBLIC "-//W3C//DTD SVG 1.1//EN" "http://www.w3.org/Graphics/SVG/1.1/DTD/svg11.dtd"><svg t="1615869250856" class="icon" viewBox="0 0 1024 1024" version="1.1" xmlns="http://www.w3.org/2000/svg" p-id="3030" width="128" height="128" xmlns:xlink="http://www.w3.org/1999/xlink"><defs><style type="text/css"></style></defs><path d="M853.154882 256.160606a170.630976 170.630976 0 1 1 0 341.261953H213.28872a213.28872 213.28872 0 1 1 27.898165-424.785816A298.646866 298.646866 0 0 1 808.278935 262.132691C822.569279 258.250836 837.627463 256.160606 853.154882 256.160606z" fill="#535456" p-id="3031"></path><path d="M819.455264 303.297414l-28.538031 7.763709a17.063098 17.063098 0 0 1-21.414187-14.418317l-3.583251-29.348528A255.989122 255.989122 0 0 0 279.834801 190.680969l-7.93434 16.977782a17.063098 17.063098 0 0 1-17.660306 9.725966l-18.598777-2.431491A170.630976 170.630976 0 1 0 213.28872 554.764815h639.866162a127.973232 127.973232 0 1 0-33.699618-251.467401z" fill="#FFFFFF" p-id="3032"></path><path d="M766.559661 342.755827l-26.234512 26.234513a3.156673 3.156673 0 0 1-4.436406 0A318.781322 318.781322 0 0 0 511.892929 277.489478a318.781322 318.781322 0 0 0-223.953156 91.458204 3.199331 3.199331 0 0 1-4.521721 0l-25.72262-25.679962a3.114015 3.114015 0 0 1 0-4.436406A361.439066 361.439066 0 0 1 511.892929 234.831734c96.61979 0 187.267497 37.965392 254.666732 104.468816a2.474149 2.474149 0 0 1 0 3.497935z" fill="#FFC13C" p-id="3033"></path><path d="M675.656009 433.65948l-26.021224 26.021223a2.858069 2.858069 0 0 1-4.009828 0A191.234667 191.234667 0 0 0 511.892929 405.462711a191.234667 191.234667 0 0 0-133.732028 54.26065 2.858069 2.858069 0 0 1-4.009828 0l-26.191854-26.234512a2.772753 2.772753 0 0 1 0-3.967171A233.892411 233.892411 0 0 1 511.892929 362.804967c62.02436 0 120.252181 24.186941 163.720422 66.54608a3.0287 3.0287 0 0 1 0 4.308433z" fill="#FFC13C" p-id="3034"></path><path d="M490.564057 597.422559h42.657744v170.630976h-42.657744zM490.564057 768.053535h42.657744v85.315489h-42.657744z" fill="#EDEEF0" p-id="3035"></path><path d="M76.783939 853.369024h870.21798a34.126195 34.126195 0 0 1 34.126195 34.126195V1024H42.657744v-136.504781a34.126195 34.126195 0 0 1 34.126195-34.126195z" fill="#111314" fill-opacity=".72" p-id="3036"></path><path d="M170.630976 938.684512m17.063098 0l8.531549 0q17.063098 0 17.063097 17.063097l0 8.531549q0 17.063098-17.063097 17.063098l-8.531549 0q-17.063098 0-17.063098-17.063098l0-8.531549q0-17.063098 17.063098-17.063097Z" fill="#FFFFFF" p-id="3037"></path><path d="M298.604209 938.684512m17.063097 0l520.424478 0q17.063098 0 17.063098 17.063097l0 8.531549q0 17.063098-17.063098 17.063098l-520.424478 0q-17.063098 0-17.063097-17.063098l0-8.531549q0-17.063098 17.063097-17.063097Z" fill="#FFFFFF" p-id="3038"></path><path d="M511.892929 746.724663h255.946465v42.657745h-255.946465zM255.946465 746.724663h255.946464v42.657745H255.946465z" fill="#EDEEF0" p-id="3039"></path><path d="M511.892929 576.093687m-85.315488 0a85.315488 85.315488 0 1 0 170.630976 0 85.315488 85.315488 0 1 0-170.630976 0Z" fill="#535456" p-id="3040"></path><path d="M511.892929 576.093687m-42.657744 0a42.657744 42.657744 0 1 0 85.315488 0 42.657744 42.657744 0 1 0-85.315488 0Z" fill="#FFFFFF" p-id="3041"></path><path d="M511.892929 810.71128a42.657744 42.657744 0 1 0 0-85.315489 42.657744 42.657744 0 0 0 0 85.315489z" fill="#535456" p-id="3042"></path><path d="M767.839394 810.71128a42.657744 42.657744 0 1 0 0-85.315489 42.657744 42.657744 0 0 0 0 85.315489zM255.946465 810.71128a42.657744 42.657744 0 1 0 0-85.315489 42.657744 42.657744 0 0 0 0 85.315489z" fill="#5BADFF" p-id="3043"></path></svg>